<svg width="79" height="32" viewBox="0 0 79 32" fill="none" xmlns="http://www.w3.org/2000/svg">
<g clip-path="url(#clip0_9248_25353)">
<path d="M51.1045 5.9326C49.4594 5.9326 48.124 4.60806 48.124 2.97289C48.124 1.33919 49.4579 0.0131836 51.1045 0.0131836C52.7497 0.0131836 54.0851 1.33773 54.0851 2.97289C54.0836 4.60806 52.7497 5.9326 51.1045 5.9326Z" fill="#2563EB"></path>
<path d="M48.2282 7.96484H53.872C53.9989 7.96484 54.1022 8.06741 54.1022 8.19341V26.0909C54.1022 29.3128 51.4729 31.9238 48.2282 31.9238C48.1013 31.9238 47.998 31.8213 47.998 31.6952V8.19341C47.998 8.06741 48.1013 7.96484 48.2282 7.96484Z" fill="#2563EB"></path>
<path d="M10.178 31.9721C4.85146 31.6088 0.559216 27.4491 0.0339366 22.2022C0.0191816 22.0659 0.00737752 21.9282 0 21.789V17.7099C0 17.6425 0.0545937 17.5883 0.122467 17.5883H1.76913C3.38776 17.5883 5.91677 19.3626 5.91677 21.7069C5.9212 21.7201 5.92415 21.7333 5.92563 21.748C6.23843 24.2154 8.36464 26.1304 10.935 26.1304C13.7192 26.1304 15.9841 23.8813 15.9841 21.1165C15.9841 18.4234 13.8343 16.2183 11.1474 16.1069H5.86513C2.68837 16.1069 0.10181 13.6 0.00295101 10.4688C0.0014755 10.4674 0.0014755 10.4674 0.00295101 10.4659C0.0014755 10.4088 0 10.3472 0 10.2857V0.253461C0 0.153828 0.0811528 0.0761719 0.181487 0.0761719C3.73303 0.0761719 6.06137 3.13551 6.06137 5.75969V10.2271L11.1622 10.2417C11.1755 10.2417 11.1888 10.2432 11.202 10.2432C16.9063 10.378 21.5453 14.8659 21.8729 20.482C22.2639 27.1765 16.9152 32.4308 10.178 31.9721Z" fill="#2563EB"></path>
<path d="M34.261 31.896C28.9345 31.5326 24.6422 27.3729 24.1169 22.126C24.1022 21.9897 24.0904 21.852 24.083 21.7128V17.6337C24.083 17.5663 24.1376 17.5121 24.2055 17.5121H25.8521C27.4708 17.5121 29.9998 19.2864 29.9998 21.6308C30.0042 21.644 30.0072 21.6571 30.0086 21.6718C30.3214 24.1392 32.4476 26.0542 35.018 26.0542C37.8023 26.0542 40.0671 23.8051 40.0671 21.0403C40.0671 18.3473 37.9173 16.1421 35.2304 16.0308H29.9481C26.7714 16.0308 24.1848 13.5238 24.086 10.3927C24.0845 10.3912 24.0845 10.3912 24.086 10.3897C24.083 10.3282 24.083 10.2681 24.083 10.2066V0.177289C24.083 0.0776557 24.1642 0 24.2645 0C27.816 0 30.1444 3.05934 30.1444 5.68352V10.1495L35.2452 10.1641C35.2585 10.1641 35.2718 10.1656 35.285 10.1656C40.9893 10.3004 45.6283 14.7883 45.9559 20.4044C46.3469 27.1004 40.9982 32.3546 34.261 31.896Z" fill="#2563EB"></path>
<path d="M66.4017 31.896C61.0751 31.5326 56.7829 27.3729 56.2576 22.126C56.2428 21.9897 56.231 21.852 56.2236 21.7128V17.6337C56.2236 17.5663 56.2782 17.5121 56.3461 17.5121H57.9928C59.6114 17.5121 62.1404 19.2864 62.1404 21.6308C62.1448 21.644 62.1478 21.6571 62.1493 21.6718C62.4621 24.1392 64.5883 26.0542 67.1586 26.0542C69.9429 26.0542 72.2078 23.8051 72.2078 21.0403C72.2078 18.3473 70.058 16.1421 67.3711 16.0308H62.0888C58.912 16.0308 56.3254 13.5238 56.2266 10.3927C56.2251 10.3912 56.2251 10.3912 56.2266 10.3897C56.2236 10.3282 56.2236 10.2681 56.2236 10.2066V0.177289C56.2236 0.0776557 56.3048 0 56.4051 0C59.9567 0 62.285 3.05934 62.285 5.68352V10.1495L67.3858 10.1641C67.3991 10.1641 67.4124 10.1656 67.4257 10.1656C73.13 10.3004 77.769 14.7883 78.0965 20.4044C78.4875 27.1004 73.1403 32.3546 66.4017 31.896Z" fill="#2563EB"></path>
<path d="M18.8006 0.0439453H19.9854C19.9854 3.35823 17.7087 6.04541 13.9418 6.04541H7.10725C7.23266 3.08863 5.97111 1.23222 3.8877 0.0439453H18.8006Z" fill="#F30C60"></path>
</g>
<defs>
<clipPath id="clip0_9248_25353">
<rect width="78.1176" height="32" fill="white"></rect>
</clipPath>
</defs>
</svg>