<svg width="34" height="34" viewBox="0 0 34 34" fill="none" xmlns="http://www.w3.org/2000/svg">

<path class="icon-color-1" d="M 16.1692 33.9705 C 10.5856 33.5844 6.0862 29.1647 5.5356 23.5899 C 5.5201 23.4451 5.5077 23.2988 5.5 23.1509 V 18.8168 C 5.5 18.7452 5.5572 18.6876 5.6284 18.6876 H 7.3545 C 9.0512 18.6876 11.7023 20.5729 11.7023 23.0637 C 11.7069 23.0777 11.71 23.0917 11.7116 23.1073 C 12.0395 25.7289 14.2683 27.7636 16.9626 27.7636 C 19.8813 27.7636 22.2554 25.374 22.2554 22.4363 C 22.2554 19.575 20.0019 17.232 17.1854 17.1137 H 11.6482 C 8.3181 17.1137 5.6067 14.4501 5.5031 11.1233 C 5.5015 11.1217 5.5015 11.1217 5.5031 11.1201 C 5.5015 11.0594 5.5 10.994 5.5 10.9287 V 0.2694 C 5.5 0.1636 5.5851 0.0811 5.6902 0.0811 C 9.4132 0.0811 11.8539 3.3316 11.8539 6.1198 V 10.8664 L 17.2008 10.882 C 17.2147 10.882 17.2287 10.8835 17.2426 10.8835 C 23.2221 11.0267 28.085 15.7951 28.4283 21.7622 C 28.8382 28.8751 23.2314 34.4577 16.1692 33.9705 Z"></path>
<path d="M 25.2081 0.0466 H 26.4501 C 26.4501 3.568 24.0635 6.4232 20.1148 6.4232 H 12.9505 C 13.0819 3.2816 11.7595 1.3092 9.5756 0.0466 H 25.2081 Z" fill="#DB3069"></path>
</svg>